<svg id="Layer_1" data-name="Layer 1" xmlns="http://www.w3.org/2000/svg" viewBox="0 0 179.09 243.84"><defs><style>.cls-1{fill:#abff4f;}.cls-2{fill:#fd3e81;}.cls-3{fill:#ff006a;}.cls-4{fill:#fff;opacity:0.35;isolation:isolate;}.cls-5{fill:#e43f6f;}</style></defs><title>aliveberry</title><path class="cls-1" d="M88.34,79.9s-8.1-55,39.73-79.9c0,0-4.2,23.44-5,36.23S88.34,79.9,88.34,79.9Z"/><path class="cls-1" d="M93.6,79.28S100,24,51.48.62c0,0,4.91,23.3,6.13,36.07S93.6,79.28,93.6,79.28Z"/><path class="cls-2" d="M146.38,76.17c0,16.79-13.26,34.23-29.61,34.23S87.15,93,87.15,76.17s13.26-30.4,29.61-30.4S146.38,59.35,146.38,76.17Z"/><path class="cls-3" d="M131.85,152.44c0,19-15,38.65-33.43,38.65S65,171.35,65,152.44s15-34.33,33.43-34.33S131.85,133.48,131.85,152.44Z"/><path class="cls-4" d="M93.68,142.58c-1.68,5.45-7.81,9.77-13.12,8.07s-7.82-8.7-6.1-14.14a10.08,10.08,0,0,1,19.35,5.67Z"/><path class="cls-2" d="M86.33,177.08c0,16.79-13.26,34.23-29.61,34.23S27.1,193.87,27.1,177.08s13.26-30.4,29.61-30.4S86.33,160.29,86.33,177.08Z"/><path class="cls-4" d="M52.53,168.35C51,173.18,45.61,177,40.91,175.5S34,167.8,35.51,163a8.93,8.93,0,1,1,17.2,4.81Q52.63,168.07,52.53,168.35Z"/><path class="cls-5" d="M65.69,144.64c0,18.39-14.52,37.48-32.43,37.48S0.83,163,.83,144.64s14.52-33.29,32.43-33.29S65.69,126.25,65.69,144.64Z"/><path class="cls-3" d="M62.77,100c0,17.8-14,36.28-31.38,36.28S0,117.77,0,100,14.05,67.76,31.38,67.76,62.77,82.18,62.77,100Z"/><path class="cls-3" d="M107.33,76.49c0,18.71-14.77,38.14-33,38.14s-33-19.43-33-38.14,14.77-33.88,33-33.88S107.33,57.77,107.33,76.49Z"/><path class="cls-5" d="M179.09,98.19c0,17.8-14.05,36.28-31.38,36.28S116.33,116,116.33,98.19,130.38,66,147.71,66,179.09,80.35,179.09,98.19Z"/><path class="cls-3" d="M163.82,114.61c0,19.83-15.65,40.41-35,40.41s-35-20.59-35-40.41,15.65-35.9,35-35.9S163.82,94.78,163.82,114.61Z"/><path class="cls-2" d="M178.9,140c0,16.79-13.26,34.23-29.61,34.23S119.68,156.76,119.68,140s13.26-30.4,29.61-30.4S178.9,123.18,178.9,140Z"/><path class="cls-5" d="M157.84,180.49c0,16.14-12.74,32.9-28.47,32.9s-28.47-16.76-28.47-32.9,12.74-29.23,28.47-29.23S157.84,164.35,157.84,180.49Z"/><path class="cls-2" d="M101.13,123.35c0,17.8-14.05,36.28-31.38,36.28s-31.39-18.5-31.39-36.28,14-32.22,31.38-32.22S101.13,105.53,101.13,123.35Z"/><path class="cls-3" d="M124.34,205.19c0,19-15,38.65-33.43,38.65s-33.43-19.69-33.43-38.65,15-34.33,33.43-34.33S124.34,186.23,124.34,205.19Z"/></svg>