<svg id="Layer_1" data-name="Layer 1" xmlns="http://www.w3.org/2000/svg" viewBox="0 0 179.09 267.48"><defs><style>.cls-1{fill:#abff4f;}.cls-2,.cls-7{fill:#fff;}.cls-3{fill:#08605f;}.cls-4{fill:#85ffc7;}.cls-5{fill:#fd3e81;}.cls-6{fill:#ff006a;}.cls-7{opacity:0.35;}.cls-8{fill:#e43f6f;}</style></defs><title>aliveberry</title><rect class="cls-1" x="59.92" width="20.48" height="121.35"/><rect class="cls-2" x="67.58" y="16.36" width="5.15" height="96.66"/><rect class="cls-3" x="80.4" y="22.09" width="24.7" height="99.26"/><rect class="cls-4" x="105.1" y="37.9" width="16.8" height="83.44"/><rect class="cls-2" x="90.17" y="37.53" width="5.15" height="68.37"/><rect class="cls-2" x="110.13" y="57.28" width="5.15" height="39.91"/><path class="cls-5" d="M146.38,99.82c0,16.79-13.26,34.23-29.61,34.23S87.15,116.61,87.15,99.82s13.26-30.4,29.61-30.4S146.38,83,146.38,99.82Z"/><path class="cls-6" d="M131.85,176.09c0,19-15,38.65-33.43,38.65S65,195,65,176.09s15-34.33,33.43-34.33S131.85,157.13,131.85,176.09Z"/><path class="cls-7" d="M93.68,166.23C92,171.68,85.87,176,80.56,174.3s-7.82-8.7-6.1-14.14A10.08,10.08,0,1,1,93.68,166.23Z"/><path class="cls-5" d="M86.33,200.73c0,16.79-13.26,34.23-29.61,34.23S27.1,217.52,27.1,200.73s13.26-30.4,29.61-30.4S86.33,183.94,86.33,200.73Z"/><path class="cls-7" d="M52.53,192c-1.53,4.83-6.92,8.63-11.62,7.15s-6.93-7.7-5.4-12.53A8.93,8.93,0,1,1,52.53,192Z"/><path class="cls-8" d="M65.69,168.29c0,18.39-14.52,37.48-32.43,37.48S0.83,186.68.83,168.29,15.35,135,33.26,135,65.69,149.9,65.69,168.29Z"/><path class="cls-6" d="M62.77,123.63c0,17.8-14.05,36.28-31.38,36.28S0,141.42,0,123.63,14.05,91.41,31.38,91.41,62.77,105.83,62.77,123.63Z"/><path class="cls-6" d="M107.33,100.14c0,18.71-14.77,38.14-33,38.14s-33-19.43-33-38.14,14.77-33.88,33-33.88S107.33,81.42,107.33,100.14Z"/><path class="cls-8" d="M179.09,121.84c0,17.8-14.05,36.28-31.38,36.28s-31.38-18.48-31.38-36.28,14.05-32.22,31.38-32.22S179.09,104,179.09,121.84Z"/><path class="cls-6" d="M163.82,138.26c0,19.83-15.65,40.41-35,40.41s-35-20.59-35-40.41,15.65-35.9,35-35.9S163.82,118.43,163.82,138.26Z"/><path class="cls-5" d="M178.9,163.62c0,16.79-13.26,34.23-29.61,34.23s-29.61-17.44-29.61-34.23,13.26-30.4,29.61-30.4S178.9,146.83,178.9,163.62Z"/><path class="cls-8" d="M157.84,204.14c0,16.14-12.74,32.9-28.47,32.9s-28.47-16.76-28.47-32.9,12.74-29.23,28.47-29.23S157.84,188,157.84,204.14Z"/><circle class="cls-2" cx="121.9" cy="215.88" r="3.04" transform="translate(-98.73 102.81) rotate(-33.41)"/><path class="cls-5" d="M101.13,147c0,17.8-14.05,36.28-31.38,36.28S38.36,164.78,38.36,147s14.05-32.22,31.38-32.22S101.13,129.18,101.13,147Z"/><path class="cls-6" d="M124.34,228.84c0,19-15,38.65-33.43,38.65S57.48,247.8,57.48,228.84s15-34.33,33.43-34.33S124.34,209.88,124.34,228.84Z"/><circle class="cls-2" cx="69.11" cy="147.78" r="3.04"/><circle class="cls-2" cx="149.29" cy="165.53" r="3.04" transform="translate(-69.73 124.07) rotate(-37.24)"/><circle class="cls-2" cx="90.91" cy="231" r="3.04" transform="translate(-121.24 102.09) rotate(-37.24)"/><circle class="cls-2" cx="53.88" cy="205.77" r="3.04" transform="translate(-113.53 74.55) rotate(-37.24)"/><circle class="cls-2" cx="31.38" cy="176.17" r="3.04" transform="translate(-100.2 54.9) rotate(-37.24)"/><circle class="cls-2" cx="26.61" cy="123.49" r="3.04" transform="translate(-69.3 41.27) rotate(-37.24)"/><circle class="cls-2" cx="72.04" cy="96.3" r="3.04" transform="translate(-43.59 63.22) rotate(-37.24)"/><circle class="cls-2" cx="132.91" cy="131" r="3.04" transform="translate(-52.17 107.12) rotate(-37.24)"/><circle class="cls-2" cx="107.91" cy="168" r="3.04" transform="translate(-79.66 99.54) rotate(-37.24)"/><circle class="cls-2" cx="163.91" cy="115" r="3.04" transform="translate(-36.17 122.62) rotate(-37.24)"/><circle class="cls-2" cx="113.5" cy="100.44" r="3.04" transform="translate(-37.64 89.15) rotate(-37.24)"/></svg>