<svg aria-hidden="true" style="position: absolute; width: 0; height: 0; overflow: hidden;" version="1.1" xmlns="http://www.w3.org/2000/svg" xmlns:xlink="http://www.w3.org/1999/xlink">
<defs>
<symbol id="icon-arrow-left-circle" viewBox="0 0 24 24">
<title>arrow-left-circle</title>
<path d="M12 1c-6.1 0-11 4.9-11 11s4.9 11 11 11 11-4.9 11-11-4.9-11-11-11zM12 21c-5 0-9-4-9-9s4-9 9-9c5 0 9 4 9 9s-4 9-9 9z"></path>
<path d="M16 11h-5.6l2.3-2.3c0.4-0.4 0.4-1 0-1.4s-1-0.4-1.4 0l-4 4c-0.1 0.1-0.2 0.2-0.2 0.3-0.1 0.2-0.1 0.5 0 0.8 0.1 0.1 0.1 0.2 0.2 0.3l4 4c0.2 0.2 0.5 0.3 0.7 0.3s0.5-0.1 0.7-0.3c0.4-0.4 0.4-1 0-1.4l-2.3-2.3h5.6c0.6 0 1-0.4 1-1s-0.4-1-1-1z"></path>
</symbol>
<symbol id="icon-arrow-right-circle" viewBox="0 0 24 24">
<title>arrow-right-circle</title>
<path d="M12 1c-6.1 0-11 4.9-11 11s4.9 11 11 11 11-4.9 11-11-4.9-11-11-11zM12 21c-5 0-9-4-9-9s4-9 9-9c5 0 9 4 9 9s-4 9-9 9z"></path>
<path d="M16.9 11.6c-0.1-0.1-0.1-0.2-0.2-0.3l-4-4c-0.4-0.4-1-0.4-1.4 0s-0.4 1 0 1.4l2.3 2.3h-5.6c-0.6 0-1 0.4-1 1s0.4 1 1 1h5.6l-2.3 2.3c-0.4 0.4-0.4 1 0 1.4 0.2 0.2 0.5 0.3 0.7 0.3s0.5-0.1 0.7-0.3l4-4c0.1-0.1 0.2-0.2 0.2-0.3 0.1-0.3 0.1-0.5 0-0.8z"></path>
</symbol>
<symbol id="icon-book" viewBox="0 0 24 24">
<title>book</title>
<path d="M20 1h-13.5c-1.9 0-3.5 1.6-3.5 3.5v15c0 1.9 1.6 3.5 3.5 3.5h13.5c0.6 0 1-0.4 1-1v-20c0-0.6-0.4-1-1-1zM6.5 3h12.5v13h-12.5c-0.5 0-1 0.1-1.5 0.4v-11.9c0-0.8 0.7-1.5 1.5-1.5zM6.5 21c-0.8 0-1.5-0.7-1.5-1.5s0.7-1.5 1.5-1.5h12.5v3h-12.5z"></path>
</symbol>
<symbol id="icon-book-open" viewBox="0 0 24 24">
<title>book-open</title>
<path d="M22 2h-6c-1.6 0-3.1 0.8-4 2-0.9-1.2-2.4-2-4-2h-6c-0.6 0-1 0.4-1 1v15c0 0.6 0.4 1 1 1h7c1.1 0 2 0.9 2 2 0 0.6 0.4 1 1 1s1-0.4 1-1c0-1.1 0.9-2 2-2h7c0.6 0 1-0.4 1-1v-15c0-0.6-0.4-1-1-1zM11 17.5c-0.6-0.3-1.3-0.5-2-0.5h-6v-13h5c1.7 0 3 1.3 3 3v10.5zM21 17h-6c-0.7 0-1.4 0.2-2 0.5v-10.5c0-1.7 1.3-3 3-3h5v13z"></path>
</symbol>
<symbol id="icon-check-circle" viewBox="0 0 24 24">
<title>check-circle</title>
<path d="M22 10.1c-0.6 0-1 0.4-1 1v0.9c0 5-4 9-9 9 0 0 0 0 0 0-5 0-9-4-9-9s4-9 9-9c0 0 0 0 0 0 1.3 0 2.5 0.3 3.7 0.8 0.5 0.2 1.1 0 1.3-0.5s0-1.1-0.5-1.3c-1.4-0.6-2.9-1-4.5-1 0 0 0 0 0 0-6.1 0-11 4.9-11 11s4.9 11 11 11c0 0 0 0 0 0 6.1 0 11-4.9 11-11v-0.9c0-0.6-0.4-1-1-1z"></path>
<path d="M9.7 10.3c-0.4-0.4-1-0.4-1.4 0s-0.4 1 0 1.4l3 3c0.2 0.2 0.4 0.3 0.7 0.3s0.5-0.1 0.7-0.3l10-10c0.4-0.4 0.4-1 0-1.4s-1-0.4-1.4 0l-9.3 9.3-2.3-2.3z"></path>
</symbol>
<symbol id="icon-chevrons-down" viewBox="0 0 24 24">
<title>chevrons-down</title>
<path d="M16.3 12.3l-4.3 4.3-4.3-4.3c-0.4-0.4-1-0.4-1.4 0s-0.4 1 0 1.4l5 5c0.2 0.2 0.5 0.3 0.7 0.3s0.5-0.1 0.7-0.3l5-5c0.4-0.4 0.4-1 0-1.4s-1-0.4-1.4 0z"></path>
<path d="M11.3 11.7c0.2 0.2 0.5 0.3 0.7 0.3s0.5-0.1 0.7-0.3l5-5c0.4-0.4 0.4-1 0-1.4s-1-0.4-1.4 0l-4.3 4.3-4.3-4.3c-0.4-0.4-1-0.4-1.4 0s-0.4 1 0 1.4l5 5z"></path>
</symbol>
<symbol id="icon-hash" viewBox="0 0 24 24">
<title>hash</title>
<path d="M20 14h-4.2l0.4-4h3.8c0.6 0 1-0.4 1-1s-0.4-1-1-1h-3.5l0.5-4.9c0.1-0.5-0.3-1-0.9-1.1-0.5-0.1-1 0.3-1.1 0.9l-0.6 5.1h-4l0.6-4.9c0.1-0.5-0.3-1-0.9-1.1-0.5-0.1-1 0.3-1.1 0.9l-0.6 5.1h-4.4c-0.6 0-1 0.4-1 1s0.4 1 1 1h4.2l-0.4 4h-3.8c-0.6 0-1 0.4-1 1s0.4 1 1 1h3.5l-0.5 4.9c-0.1 0.5 0.3 1 0.9 1.1 0 0 0.1 0 0.1 0 0.5 0 0.9-0.4 1-0.9l0.6-5.1h4l-0.6 4.9c-0.1 0.5 0.3 1 0.9 1.1 0 0 0.1 0 0.1 0 0.5 0 0.9-0.4 1-0.9l0.6-5.1h4.4c0.6 0 1-0.4 1-1s-0.4-1-1-1zM9.8 14l0.4-4h4l-0.4 4h-4z"></path>
</symbol>
<symbol id="icon-trash" viewBox="0 0 24 24">
<title>trash</title>
<path d="M21 5h-4v-1c0-1.7-1.3-3-3-3h-4c-1.7 0-3 1.3-3 3v1h-4c-0.6 0-1 0.4-1 1s0.4 1 1 1h1v13c0 1.7 1.3 3 3 3h10c1.7 0 3-1.3 3-3v-13h1c0.6 0 1-0.4 1-1s-0.4-1-1-1zM9 4c0-0.6 0.4-1 1-1h4c0.6 0 1 0.4 1 1v1h-6v-1zM18 20c0 0.6-0.4 1-1 1h-10c-0.6 0-1-0.4-1-1v-13h12v13z"></path>
<path d="M10 10c-0.6 0-1 0.4-1 1v6c0 0.6 0.4 1 1 1s1-0.4 1-1v-6c0-0.6-0.4-1-1-1z"></path>
<path d="M14 10c-0.6 0-1 0.4-1 1v6c0 0.6 0.4 1 1 1s1-0.4 1-1v-6c0-0.6-0.4-1-1-1z"></path>
</symbol>
<symbol id="icon-authors" viewBox="0 0 24 24">
<title>authors</title>
<path d="M13 14h-8c-2.8 0-5 2.2-5 5v2c0 0.6 0.4 1 1 1s1-0.4 1-1v-2c0-1.7 1.3-3 3-3h8c1.7 0 3 1.3 3 3v2c0 0.6 0.4 1 1 1s1-0.4 1-1v-2c0-2.8-2.2-5-5-5z"></path>
<path d="M9 12c2.8 0 5-2.2 5-5s-2.2-5-5-5-5 2.2-5 5 2.2 5 5 5zM9 4c1.7 0 3 1.3 3 3s-1.3 3-3 3-3-1.3-3-3 1.3-3 3-3z"></path>
<path d="M20.2 14.2c-0.5-0.1-1.1 0.2-1.2 0.7s0.2 1.1 0.7 1.2c1.3 0.3 2.2 1.5 2.2 2.9v2c0 0.6 0.4 1 1 1s1-0.4 1-1v-2c0.1-2.3-1.4-4.3-3.7-4.8z"></path>
<path d="M16.2 2.2c-0.5-0.2-1 0.1-1.2 0.7-0.1 0.5 0.2 1.1 0.7 1.2 1.6 0.4 2.6 2 2.2 3.7-0.3 1.1-1.1 1.9-2.2 2.2-0.5 0.1-0.9 0.7-0.7 1.2 0.1 0.5 0.5 0.8 1 0.8 0.1 0 0.2 0 0.2 0 1.8-0.5 3.2-1.8 3.6-3.6 0.7-2.8-0.9-5.6-3.6-6.2z"></path>
</symbol>
<symbol id="icon-x-circle" viewBox="0 0 24 24">
<title>x-circle</title>
<path d="M12 1c-6.1 0-11 4.9-11 11s4.9 11 11 11 11-4.9 11-11-4.9-11-11-11zM12 21c-5 0-9-4-9-9s4-9 9-9c5 0 9 4 9 9s-4 9-9 9z"></path>
<path d="M15.7 8.3c-0.4-0.4-1-0.4-1.4 0l-2.3 2.3-2.3-2.3c-0.4-0.4-1-0.4-1.4 0s-0.4 1 0 1.4l2.3 2.3-2.3 2.3c-0.4 0.4-0.4 1 0 1.4 0.2 0.2 0.4 0.3 0.7 0.3s0.5-0.1 0.7-0.3l2.3-2.3 2.3 2.3c0.2 0.2 0.5 0.3 0.7 0.3s0.5-0.1 0.7-0.3c0.4-0.4 0.4-1 0-1.4l-2.3-2.3 2.3-2.3c0.4-0.4 0.4-1 0-1.4z"></path>
</symbol>
<symbol id="icon-bullet" viewBox="0 0 20 20">
<title>bullet</title>
<path d="M10 3c-3.866 0-7 3.133-7 7 0 3.865 3.134 7 7 7s7-3.135 7-7c0-3.867-3.134-7-7-7z"></path>
</symbol>
<symbol id="icon-github" viewBox="0 0 20 20">
<title>github</title>
<path d="M13.18 11.309c-0.718 0-1.3 0.807-1.3 1.799 0 0.994 0.582 1.801 1.3 1.801s1.3-0.807 1.3-1.801c-0.001-0.992-0.582-1.799-1.3-1.799zM17.706 6.626c0.149-0.365 0.155-2.439-0.635-4.426 0 0-1.811 0.199-4.551 2.080-0.575-0.16-1.548-0.238-2.519-0.238-0.973 0-1.945 0.078-2.52 0.238-2.741-1.881-4.552-2.080-4.552-2.080-0.789 1.987-0.781 4.061-0.634 4.426-0.928 1.008-1.495 2.219-1.495 3.871 0 7.186 5.963 7.301 7.467 7.301 0.342 0 1.018 0.002 1.734 0.002s1.392-0.002 1.732-0.002c1.506 0 7.467-0.115 7.467-7.301 0-1.652-0.566-2.863-1.494-3.871zM10.028 16.915h-0.056c-3.771 0-6.709-0.449-6.709-4.115 0-0.879 0.31-1.693 1.047-2.369 1.227-1.127 3.305-0.531 5.662-0.531 0.010 0 0.020 0 0.029 0s0.018 0 0.027 0c2.357 0 4.436-0.596 5.664 0.531 0.735 0.676 1.045 1.49 1.045 2.369 0 3.666-2.937 4.115-6.709 4.115zM6.821 11.309c-0.718 0-1.3 0.807-1.3 1.799 0 0.994 0.582 1.801 1.3 1.801s1.301-0.807 1.301-1.801c0-0.992-0.582-1.799-1.301-1.799z"></path>
</symbol>
<symbol id="icon-books" viewBox="0 0 36 32">
<title>books</title>
<path d="M7 4h-6c-0.55 0-1 0.45-1 1v22c0 0.55 0.45 1 1 1h6c0.55 0 1-0.45 1-1v-22c0-0.55-0.45-1-1-1zM6 10h-4v-2h4v2z"></path>
<path d="M17 4h-6c-0.55 0-1 0.45-1 1v22c0 0.55 0.45 1 1 1h6c0.55 0 1-0.45 1-1v-22c0-0.55-0.45-1-1-1zM16 10h-4v-2h4v2z"></path>
<path d="M23.909 5.546l-5.358 2.7c-0.491 0.247-0.691 0.852-0.443 1.343l8.999 17.861c0.247 0.491 0.852 0.691 1.343 0.443l5.358-2.7c0.491-0.247 0.691-0.852 0.443-1.343l-8.999-17.861c-0.247-0.491-0.852-0.691-1.343-0.443z"></path>
</symbol>
<symbol id="icon-search" viewBox="0 0 32 32">
<title>search</title>
<path d="M31.008 27.231l-7.58-6.447c-0.784-0.705-1.622-1.029-2.299-0.998 1.789-2.096 2.87-4.815 2.87-7.787 0-6.627-5.373-12-12-12s-12 5.373-12 12 5.373 12 12 12c2.972 0 5.691-1.081 7.787-2.87-0.031 0.677 0.293 1.515 0.998 2.299l6.447 7.58c1.104 1.226 2.907 1.33 4.007 0.23s0.997-2.903-0.23-4.007zM12 20c-4.418 0-8-3.582-8-8s3.582-8 8-8 8 3.582 8 8-3.582 8-8 8z"></path>
</symbol>
<symbol id="icon-google" viewBox="0 0 32 32">
<title>google</title>
<path d="M16 0c-8.838 0-16 7.162-16 16s7.162 16 16 16 16-7.163 16-16-7.163-16-16-16zM16.238 28c-6.631 0-12-5.369-12-12s5.369-12 12-12c3.238 0 5.95 1.181 8.037 3.138l-3.256 3.138c-0.894-0.856-2.45-1.85-4.781-1.85-4.1 0-7.438 3.394-7.438 7.575s3.344 7.575 7.438 7.575c4.75 0 6.531-3.413 6.806-5.175h-6.806v-4.113h11.331c0.1 0.6 0.188 1.2 0.188 1.988 0.006 6.856-4.588 11.725-11.519 11.725z"></path>
</symbol>
</defs>
</svg>
